<svg width="1200" height="360" viewBox="0 0 1200 360" fill="none" xmlns="http://www.w3.org/2000/svg" role="img" aria-labelledby="title desc">
  <title id="title">Narendra Jadaun - Backend Developer</title>
  <desc id="desc">A dark gradient GitHub profile banner for Narendra Jadaun, focused on backend development, APIs, automation, and scalable systems.</desc>
  <defs>
    <linearGradient id="bg" x1="0" y1="0" x2="1200" y2="360" gradientUnits="userSpaceOnUse">
      <stop stop-color="#08111F"/>
      <stop offset="0.48" stop-color="#102A43"/>
      <stop offset="1" stop-color="#0F766E"/>
    </linearGradient>
    <radialGradient id="glow" cx="0" cy="0" r="1" gradientUnits="userSpaceOnUse" gradientTransform="translate(920 80) rotate(134.6) scale(360 260)">
      <stop stop-color="#38BDF8" stop-opacity="0.45"/>
      <stop offset="1" stop-color="#38BDF8" stop-opacity="0"/>
    </radialGradient>
    <filter id="softShadow" x="-20%" y="-20%" width="140%" height="140%" color-interpolation-filters="sRGB">
      <feDropShadow dx="0" dy="18" stdDeviation="18" flood-color="#020617" flood-opacity="0.35"/>
    </filter>
  </defs>

  <rect width="1200" height="360" rx="28" fill="url(#bg)"/>
  <rect width="1200" height="360" rx="28" fill="url(#glow)"/>

  <g opacity="0.22">
    <circle cx="78" cy="68" r="2" fill="#E0F2FE"/>
    <circle cx="150" cy="145" r="2" fill="#E0F2FE"/>
    <circle cx="1060" cy="256" r="2" fill="#E0F2FE"/>
    <circle cx="1116" cy="86" r="2" fill="#E0F2FE"/>
    <path d="M0 286C130 254 207 336 342 291C478 246 492 165 642 191C792 217 805 319 968 289C1077 269 1135 218 1200 226" stroke="#7DD3FC" stroke-width="2"/>
    <path d="M0 96C126 129 201 56 324 85C447 114 466 192 618 158C770 124 825 52 980 78C1083 95 1141 136 1200 125" stroke="#99F6E4" stroke-width="2"/>
  </g>

  <g filter="url(#softShadow)">
    <rect x="724" y="82" width="340" height="196" rx="22" fill="#0B1220" fill-opacity="0.72" stroke="#38BDF8" stroke-opacity="0.28"/>
    <circle cx="755" cy="117" r="7" fill="#EF4444"/>
    <circle cx="779" cy="117" r="7" fill="#F59E0B"/>
    <circle cx="803" cy="117" r="7" fill="#22C55E"/>
    <text x="756" y="164" fill="#A7F3D0" font-family="SFMono-Regular, Consolas, Liberation Mono, monospace" font-size="20">$ build scalable APIs</text>
    <text x="756" y="202" fill="#BAE6FD" font-family="SFMono-Regular, Consolas, Liberation Mono, monospace" font-size="20">Python " FastAPI " Flask</text>
    <text x="756" y="240" fill="#C4B5FD" font-family="SFMono-Regular, Consolas, Liberation Mono, monospace" font-size="20">MongoDB " Redis " AWS</text>
  </g>

  <text x="86" y="128" fill="#E0F2FE" font-family="Inter, Segoe UI, Arial, sans-serif" font-size="26" font-weight="700" letter-spacing="4">BACKEND DEVELOPER</text>
  <text x="84" y="186" fill="#FFFFFF" font-family="Inter, Segoe UI, Arial, sans-serif" font-size="56" font-weight="800">Narendra Jadaun</text>
  <text x="88" y="235" fill="#BAE6FD" font-family="Inter, Segoe UI, Arial, sans-serif" font-size="26">APIs " Dashboards " Automation " Scalable Systems</text>

  <g transform="translate(88 268)">
    <rect width="128" height="38" rx="19" fill="#22C55E" fill-opacity="0.16" stroke="#86EFAC" stroke-opacity="0.42"/>
    <text x="24" y="25" fill="#DCFCE7" font-family="Inter, Segoe UI, Arial, sans-serif" font-size="16" font-weight="700">Python</text>
  </g>
  <g transform="translate(232 268)">
    <rect width="126" height="38" rx="19" fill="#0EA5E9" fill-opacity="0.16" stroke="#7DD3FC" stroke-opacity="0.42"/>
    <text x="24" y="25" fill="#E0F2FE" font-family="Inter, Segoe UI, Arial, sans-serif" font-size="16" font-weight="700">FastAPI</text>
  </g>
  <g transform="translate(374 268)">
    <rect width="118" height="38" rx="19" fill="#14B8A6" fill-opacity="0.16" stroke="#5EEAD4" stroke-opacity="0.42"/>
    <text x="24" y="25" fill="#CCFBF1" font-family="Inter, Segoe UI, Arial, sans-serif" font-size="16" font-weight="700">Flask</text>
  </g>
  <g transform="translate(508 268)">
    <rect width="128" height="38" rx="19" fill="#F59E0B" fill-opacity="0.16" stroke="#FCD34D" stroke-opacity="0.42"/>
    <text x="24" y="25" fill="#FEF3C7" font-family="Inter, Segoe UI, Arial, sans-serif" font-size="16" font-weight="700">Redis</text>
  </g>
</svg>
